<svg version="1.1" id="hero" xmlns="http://www.w3.org/2000/svg" xmlns:xlink="http://www.w3.org/1999/xlink" x="0px" y="0px" viewBox="0 0 557 615" style="enable-background:new 0 0 557 615;" xml:space="preserve">
<style type="text/css">
	#hero .st0{fill:url(#SVGID_1_);}
	#hero .st1{fill:#8BB9EC;}
	#hero .st2{fill:#4992FC;}
	#hero .st3{fill:#FCFAFA;}
	#hero .st4{fill:#FFFFFF;}
	#hero .st5{opacity:8.570498e-02;}
	#hero .st6{fill:#F9FAFA;}
	#hero .st7{fill:#E9F2FF;}
	#hero .st8{fill:#BBB1A8;}
	#hero .st9{fill:#FE7A6C;}
	#hero .st10{fill:#83B4FB;}
	#hero .st11{opacity:0.4788;fill:#5399FB;}
	#hero .st12{fill:#A5C8FD;}
	#hero .st13{fill:#ABD0F5;}
	#hero .st14{fill:#B28B67;}
	#hero .st15{fill:#3D7CD6;}
	#hero .st16{fill:#F7F7F7;}
	#hero .st17{fill:#343536;}
	#hero .st18{fill:#545556;}
	#hero .st19{fill:#E4E4E4;}
	#hero .st20{fill:#F2F2F2;}
	#hero .st21{fill:#4593B6;}
	#hero .st22{fill:none;stroke:#2480A9;stroke-width:2.408;stroke-miterlimit:10;}
	#hero .st23{fill:#FF748A;}
	#hero .st24{fill:none;stroke:#FF5B75;stroke-width:2.408;stroke-miterlimit:10;}
	#hero .st25{fill:#003050;stroke:#000000;stroke-miterlimit:10;}
	#hero .st26{fill:none;stroke:#000000;stroke-width:1.7996;stroke-miterlimit:10;}
	#hero .st27{fill:#A2A1BA;}
	#hero .st28{fill:#B5B4C8;}
	#hero .st29{fill:#191847;}
	#hero .st30{fill:#FFFFFF;fill-opacity:0.2;}
	#hero .st31{opacity:0.3;fill:url(#lampLight_2_);}
	#hero [id*='shadow']{filter:url(#shadow);}
	#hero .st32{fill:#789B78;}
	#hero .st33{opacity:0.3;fill:none;stroke:#000000;stroke-linecap:round;#hero stroke-miterlimit:10;}
	#hero .st34{fill:#7BBF7B;}
	#hero .st35{fill:#5A8E5A;}
	#hero .st36{fill:#A2A1BA;}
	#hero .st37{fill:#DFDFEA;}
#hero
	#lampLight_1_{
		animation: flicker 2.5s linear infinite;
	}

	#shadowWomanArm{
		transform-origin: 122px 325px;
		animation: womanWave 5.5s infinite;
	}
	#shadowManArm{
		transform-origin: 364px 280px;
		animation: wave 3.1s infinite;
	}

	.plant-leaf{
		transform-origin: 427px 370px;
		animation: plantWave 3s infinite;
	}

	#plantLeaf1{
		animation-delay: -.7s;
	}
	#plantLeaf2{
		animation-delay: -1.5s;
	}

	@keyframes flicker{
		0%{
			opacity: .2
		}
		10%{
			opacity: .1
		}
		10.01%{
			opacity: .2
		}
		18%{
			opacity: .1
		}
		18.01%{
			opacity: .2
		}
		70%{
			opacity: .3
		}
	}

	@keyframes wave{
		0%{
			transform: rotate(-3deg);
		}
		50%{
			transform: rotate(3deg);
		}
		100%{
			transform: rotate(-3deg);
		}
	}

	@keyframes womanWave{
		20%{
			transform: rotate(-6deg);
		}
		40%{
			transform: rotate(0deg);
		}
	}

	@keyframes plantWave{
		0%{
			transform: rotate(-1.5deg);
		}
		50%{
			transform: rotate(1.5deg);
		}
		100%{
			transform: rotate(-1.5deg);
		}
	}
</style>

<defs>
	<filter id="shadow">
		  <feGaussianBlur in="SourceAlpha" stdDeviation="4"></feGaussianBlur>
			<feOffset dx="0" dy="2"></feOffset>
			<feComponentTransfer>
				<feFuncA type="linear" slope="0.3"></feFuncA>
			</feComponentTransfer>
			<feMerge>
				<feMergeNode></feMergeNode>
				<feMergeNode in="SourceGraphic"></feMergeNode>
			</feMerge>
	</filter>
</defs>

<g id="background">

		<linearGradient id="SVGID_1_" gradientUnits="userSpaceOnUse" x1="-1541.7589" y1="-545.6866" x2="-1540.7512" y2="-545.6866" gradientTransform="matrix(325.2557 -563.3594 409.3595 236.3438 725064.9375 -739180.875)">
		<stop offset="0" style="stop-color:#80B8FB;stop-opacity:0.7281"></stop>
		<stop offset="1" style="stop-color:#C4D6E7"></stop>
	</linearGradient>
	<path class="st0" d="M444.7,18.9c-1-0.6-2-1.1-3-1.7C377.8-17.6,297.3,5.2,260.4,69c-0.6,1-1.1,2-1.7,3.1c-0.6,1-1.1,2-1.6,3
		c-48.9,92.6-5.1,203.4,26.2,309.4c-19.6-5-38.8-12.5-57.2-22.8c-1.6-0.9-3.2-1.8-4.8-2.6c-6.3-3.3-30.8-17-57.8-44.5
		c-21.3-21.7-45.7-57.6-65.4-69C27.8,205,6.6,329.3,6.6,329.3c-20.9,97.5,22,200.5,112.5,252.7c52.5,30.3,112.1,38.4,167.3,26.7
		c45.5-9.6,88.1-32.6,121.3-67.4c62-63.8,136-258.3,136-258.3c1.4-4,2.6-8.1,3.8-12.1c26.9-95.4-12.7-197.8-99.5-250.1
		C446.9,20.1,445.8,19.5,444.7,18.9z"></path>
	<path class="st1" d="M15.2,458H464c1.8-3.3,3.6-6.6,5.4-10H11.8C12.9,451.4,14,454.7,15.2,458z"></path>
	<path class="st2" d="M286.2,608.7c45.5-9.6,88.1-32.6,121.3-67.4c18.5-19,38.1-49.6,56.5-83.3H15.2c18.2,50.5,53.7,95,103.8,123.9
		C171.5,612.3,231,620.3,286.2,608.7z"></path>
	<g>
		<path class="st3" d="M214,612.6L232.8,458h-2L212,612.4C212.6,612.5,213.3,612.5,214,612.6z"></path>
		<path class="st3" d="M55.3,528.3L90.1,458h-2.3l-34,68.5C54.3,527.1,54.8,527.7,55.3,528.3z"></path>
		<path class="st3" d="M162.4,458h-2L122,583.7c0.6,0.3,1.1,0.6,1.7,0.9L162.4,458z"></path>
		<path class="st3" d="M312.1,601.7L303.2,458h-1.9l9,144.3C310.8,602.1,311.5,601.9,312.1,601.7z"></path>
		<path class="st3" d="M386.4,560.8c0.6-0.5,1.1-0.9,1.7-1.4L365.3,458h-2L386.4,560.8z"></path>
		<path class="st3" d="M441.1,497.1c0.4-0.7,0.9-1.4,1.3-2.1L428,458h-2.1L441.1,497.1z"></path>
	</g>
	<title>Artboard@3x</title>
	<desc>Created with Sketch.</desc>
	<path class="st4" d="M405.2,403h40.5H456v51h-10.2v-40.2h-40.5V454H395v-51H405.2z"></path>
	<ellipse class="st5" cx="146" cy="516.5" rx="98" ry="17.5"></ellipse>
	<path id="Oval-Copy-8" class="st5" d="M378,515.5c22.3,0,51.3-1.3,53.9-5.1c4.8-6.9,4.8-6.9,7.6-11.3c3-4.6-33.5-7.6-61.5-7.6
		c-36.5,0-66,5.4-66,12S341.5,515.5,378,515.5z"></path>
</g>
<g id="shadowPad">
	<path class="st6" d="M147,104h214c6.1,0,11,4.9,11,11v267c0,6.1-4.9,11-11,11H147c-6.1,0-11-4.9-11-11V115
		C136,108.9,140.9,104,147,104z"></path>
	<path id="Rectangle-Copy-51" class="st7" d="M148,136h212c1.1,0,2,0.9,2,2v212c0,1.1-0.9,2-2,2H148c-1.1,0-2-0.9-2-2V138
		C146,136.9,146.9,136,148,136z"></path>
	<circle class="st8" cx="254.5" cy="369.5" r="10.5"></circle>
	<circle id="Oval-Copy-5" class="st8" cx="242" cy="121" r="3"></circle>
	<path class="st8" d="M253,118h14c1.7,0,3,1.3,3,3l0,0c0,1.7-1.3,3-3,3h-14c-1.7,0-3-1.3-3-3l0,0C250,119.3,251.3,118,253,118z"></path>
</g>
<g id="shadowImage">
	<path class="st9" d="M156.5,162.9l63.2-13.3c1.6-0.3,3.2,0.7,3.6,2.3l11.6,54.4c0.3,1.6-0.7,3.2-2.3,3.6l0,0l-63.2,13.3
		c-1.6,0.3-3.2-0.7-3.6-2.3l-11.6-54.4C153.8,164.8,154.8,163.2,156.5,162.9L156.5,162.9z"></path>
	<ellipse transform="matrix(0.9781 -0.2079 0.2079 0.9781 -29.5748 45.421)" class="st4" cx="201.3" cy="163.4" rx="5.4" ry="5.7"></ellipse>
	<path class="st2" d="M209.3,175.8l-15.6,21.5c-0.5,0.7-0.7,1.6-0.5,2.4l3.8,17.7l35.6-7.5l0,0c1.6-0.3,2.7-1.9,2.3-3.6l-4.2-19.8
		L213.3,175C212,174.2,210.2,174.5,209.3,175.8z"></path>
	<path class="st10" d="M182.4,181.5c-1.3-0.9-3.1-0.6-4.1,0.7l-16,22l3.5,16.6c0.3,1.6,1.9,2.6,3.6,2.3l57.6-12.2L182.4,181.5z"></path>
</g>
<g id="shadowScreen">
	<g>
		<path class="st4" d="M155,241h198c1.1,0,2,0.9,2,2v42c0,1.1-0.9,2-2,2H155c-1.1,0-2-0.9-2-2v-42C153,241.9,153.9,241,155,241z"></path>
		<path class="st4" d="M155,295h198c1.1,0,2,0.9,2,2v42c0,1.1-0.9,2-2,2H155c-1.1,0-2-0.9-2-2v-42C153,295.9,153.9,295,155,295z"></path>
		<path class="st4" d="M247,195h106c1.1,0,2,0.9,2,2v34c0,1.1-0.9,2-2,2H247c-1.1,0-2-0.9-2-2v-34C245,195.9,245.9,195,247,195z"></path>
		<path class="st4" d="M247,149h106c1.1,0,2,0.9,2,2v34c0,1.1-0.9,2-2,2H247c-1.1,0-2-0.9-2-2v-34C245,149.9,245.9,149,247,149z"></path>
		<circle id="Oval-Copy-6" class="st11" cx="172.5" cy="262.5" r="14.5"></circle>
		<circle id="Oval-Copy-7" class="st12" cx="172.5" cy="316.5" r="14.5"></circle>
		<path class="st13" d="M202.5,248h139c2.5,0,4.5,2,4.5,4.5l0,0c0,2.5-2,4.5-4.5,4.5h-139c-2.5,0-4.5-2-4.5-4.5l0,0
			C198,250,200,248,202.5,248z"></path>
		<path id="Rectangle-Copy-56" class="st13" d="M257,159h90c1.7,0,3,1.3,3,3l0,0c0,1.7-1.3,3-3,3h-90c-1.7,0-3-1.3-3-3l0,0
			C254,160.3,255.3,159,257,159z"></path>
		<path id="Rectangle-Copy-54" class="st13" d="M202.5,304h139c2.5,0,4.5,2,4.5,4.5l0,0c0,2.5-2,4.5-4.5,4.5h-139
			c-2.5,0-4.5-2-4.5-4.5l0,0C198,306,200,304,202.5,304z"></path>
		<path id="Rectangle-Copy-53" class="st13" d="M203.5,267h83c2.5,0,4.5,2,4.5,4.5l0,0c0,2.5-2,4.5-4.5,4.5h-83
			c-2.5,0-4.5-2-4.5-4.5l0,0C199,269,201,267,203.5,267z"></path>
		<path id="Rectangle-Copy-57" class="st13" d="M258,171h53c1.7,0,3,1.3,3,3l0,0c0,1.7-1.3,3-3,3h-53c-1.7,0-3-1.3-3-3l0,0
			C255,172.3,256.3,171,258,171z"></path>
		<path class="st13" d="M257,205h90c1.7,0,3,1.3,3,3l0,0c0,1.7-1.3,3-3,3h-90c-1.7,0-3-1.3-3-3l0,0C254,206.3,255.3,205,257,205z"></path>
		<path class="st13" d="M258,217h53c1.7,0,3,1.3,3,3l0,0c0,1.7-1.3,3-3,3h-53c-1.7,0-3-1.3-3-3l0,0C255,218.3,256.3,217,258,217z"></path>
		<path id="Rectangle-Copy-55" class="st13" d="M203.5,322h83c2.5,0,4.5,2,4.5,4.5l0,0c0,2.5-2,4.5-4.5,4.5h-83
			c-2.5,0-4.5-2-4.5-4.5l0,0C199,324,201,322,203.5,322z"></path>
	</g>
</g>
<g id="shadowWomanArm">
	<path class="st14" d="M134.6,301.4l20.1-22c2.4-6.3,5.2-11.5,8.3-15.5c1-0.9,3.1-2,2.3,2.2s-1.4,8.7,0,9.4c1.4,0.7,3.4-1.7,5.2-0.3
		c1.2,0.9-2.5,4.3-11,10.2L147.1,308L134.6,301.4z"></path>
	<path class="st15" d="M83.6,337.1c25.3-11.4,41.3-28.9,62.6-54.9l10.9,11.1c-13.5,29.7-21.5,45.3-45.1,51.6
		c-5.9,1.6-21.4,1.7-31.2,2.2L83.6,337.1z"></path>
</g>
<g id="shadowWoman">
	<path class="st16" d="M70,426h84c8.8,0,16,7.2,16,16v66c0,8.8-7.2,16-16,16H70c-8.8,0-16-7.2-16-16v-66C54,433.2,61.2,426,70,426z
		 M80,448c-2.2,0-4,1.8-4,4v46c0,2.2,1.8,4,4,4h65c2.2,0,4-1.8,4-4v-46c0-2.2-1.8-4-4-4H80z"></path>
	<path id="Skin" class="st14" d="M206.4,512.4c-9.1-20.3-15.7-38-18.3-47.4c-4.5-16-8-30.1-8.8-35.3c-2.1-12.5,16-13.3,18.4-7
		c3.6,9.4,9.9,40.4,17.5,87.2L206.4,512.4z M100.7,448.6c8.4-3.3,37.6-13.8,51.8-16.7c4.1-0.8,8-1.6,11.7-2.3
		c11-2.1,16.7,17.9,6.1,19.4c-26.4,3.8-63.7,7.8-66.9,8.2C98.8,457.8,95.4,450.7,100.7,448.6z"></path>
	<path id="Leg-Back" class="st17" d="M170.9,424l-45.2-23.2v-5.1h5.4c43.8,11.2,66.1,18.4,67.1,21.6v0.1c0,0,0,0.1,0.1,0.1
		c8.7,12,13.9,70.7,15.6,75.1l-16.6,2.5c-6.4-23.8-26.7-40.3-26.2-68.8C170.8,425.6,170.8,424.8,170.9,424z"></path>
	<path id="Leg-Front" class="st18" d="M129.4,437.8c-4.1-0.8-7.9-1.6-11.2-2.2c-21.1-3.7-27.2-15.1-23.6-39.9h38.8
		c6.3,1.8,39.3,15.8,56.4,23.2c11.3,4.9,7.7,22.6,1.3,27.2c0,0.3-0.2,0.5-0.4,0.6c-34.5,14.4-61.7,6.8-70.8,9.3l-4.2-13.4
		L129.4,437.8z"></path>
	<path class="st19" d="M102.7,447.4c-1.9,0.2-3.4,0.6-4.2,1c-1.2,0.6-2.8,1.6-4.9,3.1c0.6,1.3,6.5,13.2,17.4,35.7
		c3.6-0.6,5.1-2,4.3-4.1c-0.7-2.1-1.3-3.9-1.7-5.3l-0.5-20c0-0.6-0.5-1-1-1l0,0l-2.9,0.2c-1.8-1.4-3-2.7-3.5-3.9
		c-0.4-0.8-0.6-2.1-0.7-3.8l0,0c0-1.1-1-2-2.1-1.9C102.8,447.4,102.8,447.4,102.7,447.4z"></path>
	<path class="st19" d="M202,509.5c-0.6,1.9-1,3.3-1,4.2c0,1.3,0.2,3.2,0.6,5.7c1.5,0,14.7,0,39.8,0c1-3.5,0.4-5.4-1.8-5.7
		s-4.1-0.5-5.5-0.8l-18.2-8.3c-0.5-0.2-1.1,0-1.3,0.5l0,0l-1.1,2.7c-2.1,1-3.7,1.5-5,1.5c-0.9,0-2.2-0.3-3.8-1l0,0
		c-1-0.4-2.2,0-2.6,1C202,509.4,202,509.4,202,509.5z"></path>
	<path class="st14" d="M94,303.8c-4.6-2.4-8.6-6-10.4-11.2c-5.2-14.9,16-20.2,23-14.5s14.4,24.5,10,27.9c-1.8,1.4-6.6,1.9-12,1.1
		l11,18.3l-16,6.8L94,303.8z"></path>
	<path class="st18" d="M104.4,275.8c-0.5-0.8-0.4-1.4-5-2.4s-11.4-1.6-16.6,2.1c-6.7,4.8-7.5,11-9.3,14.6c-1.6,3.3-4.1,4.6-4.5,7.9
		s2.1,11.4,4.7,13.9c3.6,3.5,7.7,3.1,10.9,3.2c5.4,0.2,10.9-4.7,10.9-5.2c0-3.3,3-14.1,5.5-19.1
		C102.7,287.3,106.8,279.7,104.4,275.8z"></path>
	<path class="st20" d="M85.2,399.3l58.1-5.1c-16.6-38.6-25.8-65.3-27.3-80.1c-0.1-0.8-1.6-2-2.2-1.7c-4.4,1.7-9.4,1.6-14.8-0.1
		C87.2,335.4,84.8,362.9,85.2,399.3z"></path>
	<path class="st2" d="M80,411.3l-7.4-2.2c-2.7-31.4-1.3-61.1,14.5-78.3c1.7-5.9,3.5-11.1,5.3-15.7c0.4-0.9,1.2-2.7,3.5-2.9
		c2-0.2,5-0.4,8.9-0.8c4.6,10.7,8.7,21.4,12.1,31.7c0.1,0,0.2,0.1,0.2,0.1c0,0.1-0.1,0.2-0.1,0.2c12.6,38.4,15.2,70.6-4.9,72.4
		c-9.5,0.8-19.7,1.7-30.7,2.7C80.9,416.3,80.4,413.8,80,411.3z"></path>
	<polygon id="Path-25" class="st15" points="92.8,378.4 95.9,417.5 81.4,418.7 78.3,404.8 	"></polygon>
	<path class="st14" d="M81.1,383.7c-3.7,21.7-6.1,33.7-7.2,35.9c-0.8,1.6-6.7,6.6-10.8,9.4c-1.6,1.1-1,2.6-0.3,3
		c5,3.1,8.4-0.6,12.7-2.6c4.8-2.2,4.4,4.1,8.2,2.4c-1.2-2.6-3.9-7.5-2.6-10.8c0.6-1.4,4.4-13.8,11.6-37.2L81.1,383.7z"></path>
	<path id="Clothes-Back" class="st2" d="M112.8,341.6c-6.9,15-21.7,38.5-25.9,71.7l-15.2-3.7c-4.5-32.3,4.6-75.2,21.2-92.9
		C109.4,298.9,93.9,335.7,112.8,341.6z"></path>
</g>
<g id="shadowManArm">
	<path id="Arm" class="st14" d="M343.3,249.1l-16.2-22.9c-1.5-6.2-3.5-11.3-5.9-15.5c-0.9-1-2.6-2.2-2.4,1.8s0.3,8.3-1.1,8.8
		s-3-1.9-4.8-0.8c-1.2,0.7,1.8,4.3,9.1,10.8l8.9,22.5L343.3,249.1z"></path>
	<path id="Coat-Back" class="st15" d="M387.8,303.9l2-5.9c-24.3-14.6-24.3-30.2-41.4-59.5l-26.8,15.8
		C347.7,285,355.6,299.7,387.8,303.9z"></path>
</g>
<g id="plant">
	<g id="plantLeaf3" class="plant-leaf">
		<path class="st32" d="M428.5,358.8c-1.3-5-2-12.1,6.7-19.5c8.7-7.5,20.2-10.6,21.1-16.5c0.9-5.9,2.8-5.2,2.5,0.6
			c-0.3,6.3,1.1,26.5-8.6,29.9c-9.7,3.4-15.2,3.5-16.6,6.1C432.1,362,429.8,363.7,428.5,358.8z"></path>
		<path class="st33" d="M457.4,323.9c-1.4,7.2-6.9,19.9-17,24.5c-10.1,4.7-11.5,8.6-11.9,10.4"></path>
	</g>
	<g id="plantLeaf2" class="plant-leaf">
		<path class="st34" d="M420.8,358.9c-3.7-9.9-4.6-16,2-34.3c6.7-18.3,2.2-25.6,0-29.5c-2.2-3.9,1.3-2.8,7.1,4.1
			c14.1,16.8,28.5,28.7-0.1,61.3C426.3,364.6,422.8,364.2,420.8,358.9z"></path>
		<path class="st33" d="M427.7,299.6c3.9,7.1,12.6,22,7.4,32.7s-9.3,19.8-9.2,26"></path>
	</g>
	<g id="plantLeaf1" class="plant-leaf">
		<path class="st35" d="M407,345.2c4.9,8.6,11.2,8.9,12.2,12.7c1,3.7,3.3,2.8,2.9,0c-0.4-2.8,2.9-10.8-1.6-18.9
			c-4.5-8-12.6-8.1-14.4-16.1C404.2,315,399.7,332.5,407,345.2z"></path>
		<path class="st33" d="M405.1,326c0.2,5.5,6.7,13.6,10.5,19.3s5.4,10.5,5.2,13.6"></path>
	</g>
	<path class="st36" d="M431,403c3,0,8.4-7.2,8.4-19.8c0-12.6-3.9-19.8-3.7-21.5c0.1-1.7,3.7-4.4,3.7-4.4h-24.8c0,0,3.6,2.7,3.7,4.4
		c0.1,1.7-3.7,8.9-3.7,21.5c0,12.6,5.3,19.8,8.4,19.8S428,403,431,403z"></path>
	<path class="st37" d="M420.6,362.1c0,0-3.5,11.7-3.5,19s5.3,14.7,5.3,14.7s-3.1-5.5-3.1-14.9C419.4,372.1,420.6,362.1,420.6,362.1z"></path>
</g>
<g id="shadowMan">
	<polygon id="Leg" class="st17" points="390.7,324 363.3,414.1 350.1,490.7 339.7,490.7 353.7,324 	"></polygon>
	<path class="st18" d="M400.5,324c-1.9,49.5,0.3,75,0.7,79.5s6.1,33.6,19.6,88.7l-11.1-3.8c-21.3-50.5-28.6-76.8-31-83.4
		s-8.9-33.6-19.5-80.9h41.3V324z"></path>
	<path id="shoe" class="st19" d="M421,488.7c0.7,1.9,1,3.3,1,4.3c0,1.3-0.2,3.2-0.7,5.7c-1.5,0-15.1,0-40.7,0
		c-1.1-3.5-0.4-5.4,1.8-5.7c2.3-0.3,4.2-0.5,5.7-0.8l18.6-8.4c0.5-0.2,1.1,0,1.3,0.5l0,0l1.1,2.7c2.1,1,3.8,1.5,5.1,1.5
		c1,0,2.3-0.4,3.9-1.1l0,0c1-0.4,2.2,0,2.6,1C420.9,488.6,421,488.7,421,488.7z"></path>
	<path class="st19" d="M352.6,488.7c0.7,1.9,1,3.3,1,4.3c0,1.3-0.2,3.2-0.7,5.7c-1.5,0-15.1,0-40.7,0c-1.1-3.5-0.4-5.4,1.8-5.7
		c2.3-0.3,4.2-0.5,5.7-0.8l18.6-8.4c0.5-0.2,1.1,0,1.3,0.5l0,0l1.1,2.7c2.1,1,3.8,1.5,5.1,1.5c1,0,2.3-0.4,3.9-1.1l0,0
		c1-0.4,2.2,0,2.6,1C352.6,488.6,352.6,488.7,352.6,488.7z"></path>
	<path class="st14" d="M383.9,238c4.2-2.7,7.7-6.5,8.9-11.6c3.4-14.7-17.7-17.7-23.9-11.7s-11.3,24.7-6.7,27.6
		c1.9,1.1,6.6,1.2,11.8-0.1l-8.7,18.6l16.3,5L383.9,238z"></path>
	<path id="Hair" class="st29" d="M378.7,223.8c-3.3,8.4-6.2,12.3-8.9,11.4c-4-1.2-6.6-4.8-8.4-5.3c-1.3-0.4-1.5,1.3-1,2.7
		c0.4,1.2,3.5,3.2,3.1,4.7s-2.8-0.5-3.1,0.4c-0.5,1.5-1.8,4.1,0.8,4.9c2.6,0.8,10.4,2.1,12.9-1.3c1.6-2.2,3.7-7.3,6.4-15
		c0.2,0,0.3,0.1,0.5,0.1c2.2,0.7,3.5,3.1,2.8,5.3c-0.3,1.1-1.1,2-2.1,2.5c0.5,1.6,1.2,3.3,1.9,5.1c5.4-1.3,11.2-8.2,9.1-17.2
		c-0.1-4.1-2.2-7-5.2-8.9c-2.3-1.9-5-2.9-7.6-2.9c-4.7-1-9.2-0.9-10.6-0.4c-1.3,4.3-0.9,5.8,6.3,7.9
		C377.1,219.3,377.9,221.3,378.7,223.8z"></path>
	<path class="st14" d="M405.8,319c0.4,27.6,1.1,42.9,2,45.8c0.7,2.2,7.1,9.5,11.8,13.8c1.8,1.7,0.7,3.4-0.2,3.8
		c-7,2.9-10.4-2.4-15.5-5.8c-5.6-3.7-6.3,4.2-10.8,1.3c2-3,6.4-8.6,5.4-12.8c-0.4-1.9-2.9-18-7.4-48.4L405.8,319z"></path>
	<path id="Shirt" class="st4" d="M388.3,331.2l-54-8.6c17.3-28.2,27.6-52.8,30.9-73.9l16.7,0.2C391.5,271.4,391.1,297.1,388.3,331.2
		z"></path>
	<path id="Coat-Front" class="st2" d="M382.2,249L382.2,249l-1.1-0.2c-1.3-0.2-3.2-0.4-5.9-0.7l-5.7,10.5
		c-2.6,13.5-9.3,40.5-20.3,81l35.4,5.6c-0.5,2.8-1.2,5.7-1.8,8.5l26.3,4.2C412.2,313.4,403.3,277,382.2,249L382.2,249z"></path>
	<path class="st15" d="M388.1,308.5c-3.8,17.6-8.3,29.4-13.4,35.5l9.9,1.6C387.1,332.9,388.3,320.5,388.1,308.5z"></path>
	<polygon id="Light" class="st30" points="380.2,322.8 364,312 362.7,320 	"></polygon>
</g>
<g id="lamp">
	<linearGradient id="lampLight_2_" gradientUnits="userSpaceOnUse" x1="373.1067" y1="97" x2="373.1067" y2="458">
		<stop offset="0" style="stop-color:#FFFFFF"></stop>
		<stop offset="1" style="stop-color:#FFFFFF;stop-opacity:0"></stop>
	</linearGradient>
	<path id="lampLight_1_" class="st31" d="M216.4,458h247.7c27-49.5,51.3-105.4,65.8-140.4L428.1,97h-45.2L270.2,341.3
		c4.4,14.4,8.9,28.9,13.1,43.2c-9.7-2.5-19.3-5.6-28.7-9.3L216.4,458z"></path>
	<g id="shadowLamp">
		<path id="Combined-Shape" class="st4" d="M430,83c-0.2,13.8-11.3,25-25,25s-24.8-11.2-25-25H430z"></path>
		<rect x="404" y="4" class="st4" width="3" height="62"></rect>
		<path class="st2" d="M364,97c0.2-22.7,18.7-41,41.5-41s41.3,18.3,41.5,41H364z"></path>
	</g>
</g>
</svg>
